{
	"asset":{
		"generator":"Khronos glTF Blender I/O v4.0.44",
		"version":"2.0"
	},
	"scene":0,
	"scenes":[
		{
			"name":"Scene",
			"nodes":[
				12
			]
		}
	],
	"nodes":[
		{
			"mesh":0,
			"name":"Object_10",
			"translation":[
				0,
				0,
				7.631982043676544e-06
			]
		},
		{
			"mesh":1,
			"name":"Object_11",
			"translation":[
				0,
				0,
				7.631982043676544e-06
			]
		},
		{
			"mesh":2,
			"name":"Object_12",
			"translation":[
				0,
				0,
				7.631982043676544e-06
			]
		},
		{
			"mesh":3,
			"name":"Object_2",
			"translation":[
				0,
				0,
				7.631982043676544e-06
			]
		},
		{
			"mesh":4,
			"name":"Object_3",
			"translation":[
				0,
				0,
				7.631982043676544e-06
			]
		},
		{
			"mesh":5,
			"name":"Object_4",
			"translation":[
				0,
				0,
				7.631982043676544e-06
			]
		},
		{
			"mesh":6,
			"name":"Object_5",
			"translation":[
				0,
				0,
				7.631982043676544e-06
			]
		},
		{
			"mesh":7,
			"name":"Object_6",
			"translation":[
				0,
				0,
				7.631982043676544e-06
			]
		},
		{
			"mesh":8,
			"name":"Object_7",
			"translation":[
				0,
				0,
				7.631982043676544e-06
			]
		},
		{
			"mesh":9,
			"name":"Object_8",
			"translation":[
				0,
				0,
				7.631982043676544e-06
			]
		},
		{
			"mesh":10,
			"name":"Object_9",
			"translation":[
				0,
				0,
				7.631982043676544e-06
			]
		},
		{
			"children":[
				0,
				1,
				2,
				3,
				4,
				5,
				6,
				7,
				8,
				9,
				10
			],
			"name":"Boat.obj.cleaner.materialmerger.gles",
			"translation":[
				0,
				0,
				7.630687832715921e-06
			]
		},
		{
			"children":[
				11
			],
			"name":"Sketchfab_model",
			"rotation":[
				0,
				0.7025585770606995,
				0.7116240859031677,
				0.0016105824615806341
			],
			"scale":[
				0.004416961222887039,
				0.004416960291564465,
				0.004416960291564465
			],
			"translation":[
				0,
				-0.5500004291534424,
				0
			]
		}
	],
	"materials":[
		{
			"doubleSided":true,
			"name":"material_0",
			"pbrMetallicRoughness":{
				"metallicFactor":0,
				"roughnessFactor":0.6000000238418579
			}
		}
	],
	"meshes":[
		{
			"name":"Object_8",
			"primitives":[
				{
					"attributes":{
						"POSITION":0,
						"NORMAL":1,
						"TEXCOORD_0":2
					},
					"indices":3,
					"material":0
				}
			]
		},
		{
			"name":"Object_9",
			"primitives":[
				{
					"attributes":{
						"POSITION":4,
						"NORMAL":5,
						"TEXCOORD_0":6
					},
					"indices":7,
					"material":0
				}
			]
		},
		{
			"name":"Object_10",
			"primitives":[
				{
					"attributes":{
						"POSITION":8,
						"NORMAL":9,
						"TEXCOORD_0":10
					},
					"indices":11,
					"material":0
				}
			]
		},
		{
			"name":"Object_0",
			"primitives":[
				{
					"attributes":{
						"POSITION":12,
						"NORMAL":13,
						"TEXCOORD_0":14
					},
					"indices":15,
					"material":0
				}
			]
		},
		{
			"name":"Object_1",
			"primitives":[
				{
					"attributes":{
						"POSITION":16,
						"NORMAL":17,
						"TEXCOORD_0":18
					},
					"indices":19,
					"material":0
				}
			]
		},
		{
			"name":"Object_2",
			"primitives":[
				{
					"attributes":{
						"POSITION":20,
						"NORMAL":21,
						"TEXCOORD_0":22
					},
					"indices":23,
					"material":0
				}
			]
		},
		{
			"name":"Object_3",
			"primitives":[
				{
					"attributes":{
						"POSITION":24,
						"NORMAL":25,
						"TEXCOORD_0":26
					},
					"indices":27,
					"material":0
				}
			]
		},
		{
			"name":"Object_4",
			"primitives":[
				{
					"attributes":{
						"POSITION":28,
						"NORMAL":29,
						"TEXCOORD_0":30
					},
					"indices":31,
					"material":0
				}
			]
		},
		{
			"name":"Object_5",
			"primitives":[
				{
					"attributes":{
						"POSITION":32,
						"NORMAL":33,
						"TEXCOORD_0":34
					},
					"indices":35,
					"material":0
				}
			]
		},
		{
			"name":"Object_6",
			"primitives":[
				{
					"attributes":{
						"POSITION":36,
						"NORMAL":37,
						"TEXCOORD_0":38
					},
					"indices":39,
					"material":0
				}
			]
		},
		{
			"name":"Object_7",
			"primitives":[
				{
					"attributes":{
						"POSITION":40,
						"NORMAL":41,
						"TEXCOORD_0":42
					},
					"indices":43,
					"material":0
				}
			]
		}
	],
	"accessors":[
		{
			"bufferView":0,
			"componentType":5126,
			"count":9325,
			"max":[
				265.7991027832031,
				1204.675048828125,
				776.029296875
			],
			"min":[
				-83.83873748779297,
				-1271.8994140625,
				334.19525146484375
			],
			"type":"VEC3"
		},
		{
			"bufferView":1,
			"componentType":5126,
			"count":9325,
			"type":"VEC3"
		},
		{
			"bufferView":2,
			"componentType":5126,
			"count":9325,
			"type":"VEC2"
		},
		{
			"bufferView":3,
			"componentType":5123,
			"count":36714,
			"type":"SCALAR"
		},
		{
			"bufferView":4,
			"componentType":5126,
			"count":11829,
			"max":[
				2.4601008892059326,
				-1026.494140625,
				624.8873901367188
			],
			"min":[
				-2.4621450901031494,
				-1130.126220703125,
				421.6192626953125
			],
			"type":"VEC3"
		},
		{
			"bufferView":5,
			"componentType":5126,
			"count":11829,
			"type":"VEC3"
		},
		{
			"bufferView":6,
			"componentType":5126,
			"count":11829,
			"type":"VEC2"
		},
		{
			"bufferView":7,
			"componentType":5123,
			"count":50880,
			"type":"SCALAR"
		},
		{
			"bufferView":8,
			"componentType":5126,
			"count":5049,
			"max":[
				295.5654296875,
				1309.530517578125,
				655.0653686523438
			],
			"min":[
				46.24234390258789,
				-739.95263671875,
				22.93951416015625
			],
			"type":"VEC3"
		},
		{
			"bufferView":9,
			"componentType":5126,
			"count":5049,
			"type":"VEC3"
		},
		{
			"bufferView":10,
			"componentType":5126,
			"count":5049,
			"type":"VEC2"
		},
		{
			"bufferView":11,
			"componentType":5123,
			"count":20628,
			"type":"SCALAR"
		},
		{
			"bufferView":12,
			"componentType":5126,
			"count":9234,
			"max":[
				209.71026611328125,
				1165.98486328125,
				724.3758544921875
			],
			"min":[
				-322.3439636230469,
				-1097.56005859375,
				22.93951416015625
			],
			"type":"VEC3"
		},
		{
			"bufferView":13,
			"componentType":5126,
			"count":9234,
			"type":"VEC3"
		},
		{
			"bufferView":14,
			"componentType":5126,
			"count":9234,
			"type":"VEC2"
		},
		{
			"bufferView":15,
			"componentType":5123,
			"count":39018,
			"type":"SCALAR"
		},
		{
			"bufferView":16,
			"componentType":5126,
			"count":12448,
			"max":[
				198.0558319091797,
				745.162841796875,
				1324.0458984375
			],
			"min":[
				-198.0559539794922,
				-1101.4588623046875,
				218.83102416992188
			],
			"type":"VEC3"
		},
		{
			"bufferView":17,
			"componentType":5126,
			"count":12448,
			"type":"VEC3"
		},
		{
			"bufferView":18,
			"componentType":5126,
			"count":12448,
			"type":"VEC2"
		},
		{
			"bufferView":19,
			"componentType":5123,
			"count":46476,
			"type":"SCALAR"
		},
		{
			"bufferView":20,
			"componentType":5126,
			"count":6263,
			"max":[
				195.8206787109375,
				1257.453125,
				1117.9671630859375
			],
			"min":[
				-195.8209686279297,
				-1153.4998779296875,
				24.542236328125
			],
			"type":"VEC3"
		},
		{
			"bufferView":21,
			"componentType":5126,
			"count":6263,
			"type":"VEC3"
		},
		{
			"bufferView":22,
			"componentType":5126,
			"count":6263,
			"type":"VEC2"
		},
		{
			"bufferView":23,
			"componentType":5123,
			"count":27816,
			"type":"SCALAR"
		},
		{
			"bufferView":24,
			"componentType":5126,
			"count":10374,
			"max":[
				189.13265991210938,
				1161.67431640625,
				598.2103881835938
			],
			"min":[
				-189.1329803466797,
				-1271.8994140625,
				347.8719482421875
			],
			"type":"VEC3"
		},
		{
			"bufferView":25,
			"componentType":5126,
			"count":10374,
			"type":"VEC3"
		},
		{
			"bufferView":26,
			"componentType":5126,
			"count":10374,
			"type":"VEC2"
		},
		{
			"bufferView":27,
			"componentType":5123,
			"count":47250,
			"type":"SCALAR"
		},
		{
			"bufferView":28,
			"componentType":5126,
			"count":8288,
			"max":[
				322.3436279296875,
				1309.530517578125,
				722.0883178710938
			],
			"min":[
				-265.7995300292969,
				-1173.9840087890625,
				197.12307739257812
			],
			"type":"VEC3"
		},
		{
			"bufferView":29,
			"componentType":5126,
			"count":8288,
			"type":"VEC3"
		},
		{
			"bufferView":30,
			"componentType":5126,
			"count":8288,
			"type":"VEC2"
		},
		{
			"bufferView":31,
			"componentType":5123,
			"count":32670,
			"type":"SCALAR"
		},
		{
			"bufferView":32,
			"componentType":5126,
			"count":12390,
			"max":[
				322.4451904296875,
				1329.421630859375,
				711.949951171875
			],
			"min":[
				-322.4451904296875,
				-1329.4217529296875,
				1.9945679903030396
			],
			"type":"VEC3"
		},
		{
			"bufferView":33,
			"componentType":5126,
			"count":12390,
			"type":"VEC3"
		},
		{
			"bufferView":34,
			"componentType":5126,
			"count":12390,
			"type":"VEC2"
		},
		{
			"bufferView":35,
			"componentType":5123,
			"count":49476,
			"type":"SCALAR"
		},
		{
			"bufferView":36,
			"componentType":5126,
			"count":5414,
			"max":[
				288.1850280761719,
				768.3770751953125,
				747.0384521484375
			],
			"min":[
				-186.34141540527344,
				-1030.0823974609375,
				353.16546630859375
			],
			"type":"VEC3"
		},
		{
			"bufferView":37,
			"componentType":5126,
			"count":5414,
			"type":"VEC3"
		},
		{
			"bufferView":38,
			"componentType":5126,
			"count":5414,
			"type":"VEC2"
		},
		{
			"bufferView":39,
			"componentType":5123,
			"count":18690,
			"type":"SCALAR"
		},
		{
			"bufferView":40,
			"componentType":5126,
			"count":12040,
			"max":[
				167.08042907714844,
				1155.7677001953125,
				610.5110473632812
			],
			"min":[
				-167.08045959472656,
				-436.97100830078125,
				218.7496337890625
			],
			"type":"VEC3"
		},
		{
			"bufferView":41,
			"componentType":5126,
			"count":12040,
			"type":"VEC3"
		},
		{
			"bufferView":42,
			"componentType":5126,
			"count":12040,
			"type":"VEC2"
		},
		{
			"bufferView":43,
			"componentType":5123,
			"count":48372,
			"type":"SCALAR"
		}
	],
	"bufferViews":[
		{
			"buffer":0,
			"byteLength":111900,
			"byteOffset":0,
			"target":34962
		},
		{
			"buffer":0,
			"byteLength":111900,
			"byteOffset":111900,
			"target":34962
		},
		{
			"buffer":0,
			"byteLength":74600,
			"byteOffset":223800,
			"target":34962
		},
		{
			"buffer":0,
			"byteLength":73428,
			"byteOffset":298400,
			"target":34963
		},
		{
			"buffer":0,
			"byteLength":141948,
			"byteOffset":371828,
			"target":34962
		},
		{
			"buffer":0,
			"byteLength":141948,
			"byteOffset":513776,
			"target":34962
		},
		{
			"buffer":0,
			"byteLength":94632,
			"byteOffset":655724,
			"target":34962
		},
		{
			"buffer":0,
			"byteLength":101760,
			"byteOffset":750356,
			"target":34963
		},
		{
			"buffer":0,
			"byteLength":60588,
			"byteOffset":852116,
			"target":34962
		},
		{
			"buffer":0,
			"byteLength":60588,
			"byteOffset":912704,
			"target":34962
		},
		{
			"buffer":0,
			"byteLength":40392,
			"byteOffset":973292,
			"target":34962
		},
		{
			"buffer":0,
			"byteLength":41256,
			"byteOffset":1013684,
			"target":34963
		},
		{
			"buffer":0,
			"byteLength":110808,
			"byteOffset":1054940,
			"target":34962
		},
		{
			"buffer":0,
			"byteLength":110808,
			"byteOffset":1165748,
			"target":34962
		},
		{
			"buffer":0,
			"byteLength":73872,
			"byteOffset":1276556,
			"target":34962
		},
		{
			"buffer":0,
			"byteLength":78036,
			"byteOffset":1350428,
			"target":34963
		},
		{
			"buffer":0,
			"byteLength":149376,
			"byteOffset":1428464,
			"target":34962
		},
		{
			"buffer":0,
			"byteLength":149376,
			"byteOffset":1577840,
			"target":34962
		},
		{
			"buffer":0,
			"byteLength":99584,
			"byteOffset":1727216,
			"target":34962
		},
		{
			"buffer":0,
			"byteLength":92952,
			"byteOffset":1826800,
			"target":34963
		},
		{
			"buffer":0,
			"byteLength":75156,
			"byteOffset":1919752,
			"target":34962
		},
		{
			"buffer":0,
			"byteLength":75156,
			"byteOffset":1994908,
			"target":34962
		},
		{
			"buffer":0,
			"byteLength":50104,
			"byteOffset":2070064,
			"target":34962
		},
		{
			"buffer":0,
			"byteLength":55632,
			"byteOffset":2120168,
			"target":34963
		},
		{
			"buffer":0,
			"byteLength":124488,
			"byteOffset":2175800,
			"target":34962
		},
		{
			"buffer":0,
			"byteLength":124488,
			"byteOffset":2300288,
			"target":34962
		},
		{
			"buffer":0,
			"byteLength":82992,
			"byteOffset":2424776,
			"target":34962
		},
		{
			"buffer":0,
			"byteLength":94500,
			"byteOffset":2507768,
			"target":34963
		},
		{
			"buffer":0,
			"byteLength":99456,
			"byteOffset":2602268,
			"target":34962
		},
		{
			"buffer":0,
			"byteLength":99456,
			"byteOffset":2701724,
			"target":34962
		},
		{
			"buffer":0,
			"byteLength":66304,
			"byteOffset":2801180,
			"target":34962
		},
		{
			"buffer":0,
			"byteLength":65340,
			"byteOffset":2867484,
			"target":34963
		},
		{
			"buffer":0,
			"byteLength":148680,
			"byteOffset":2932824,
			"target":34962
		},
		{
			"buffer":0,
			"byteLength":148680,
			"byteOffset":3081504,
			"target":34962
		},
		{
			"buffer":0,
			"byteLength":99120,
			"byteOffset":3230184,
			"target":34962
		},
		{
			"buffer":0,
			"byteLength":98952,
			"byteOffset":3329304,
			"target":34963
		},
		{
			"buffer":0,
			"byteLength":64968,
			"byteOffset":3428256,
			"target":34962
		},
		{
			"buffer":0,
			"byteLength":64968,
			"byteOffset":3493224,
			"target":34962
		},
		{
			"buffer":0,
			"byteLength":43312,
			"byteOffset":3558192,
			"target":34962
		},
		{
			"buffer":0,
			"byteLength":37380,
			"byteOffset":3601504,
			"target":34963
		},
		{
			"buffer":0,
			"byteLength":144480,
			"byteOffset":3638884,
			"target":34962
		},
		{
			"buffer":0,
			"byteLength":144480,
			"byteOffset":3783364,
			"target":34962
		},
		{
			"buffer":0,
			"byteLength":96320,
			"byteOffset":3927844,
			"target":34962
		},
		{
			"buffer":0,
			"byteLength":96744,
			"byteOffset":4024164,
			"target":34963
		}
	],
	"buffers":[
		{
			"byteLength":4120908,
			"uri":"scene.bin"
		}
	]
}
