{
	"asset":{
		"generator":"Khronos glTF Blender I/O v4.0.44",
		"version":"2.0"
	},
	"scene":0,
	"scenes":[
		{
			"name":"Scene",
			"nodes":[
				30
			]
		}
	],
	"nodes":[
		{
			"mesh":0,
			"name":"\ufffd\ufffd\ufffd\ufffd\ufffd\ufffd\ufffd\ufffd\ufffd\ufffd_Material #30_0"
		},
		{
			"children":[
				0
			],
			"name":"body",
			"rotation":[
				-0.70710688829422,
				0,
				0,
				0.7071066498756409
			],
			"translation":[
				-734.2816162109375,
				0,
				-30.454906463623047
			]
		},
		{
			"mesh":1,
			"name":"\ufffd\ufffd\ufffd\ufffd\ufffd\ufffd\ufffd\ufffd\ufffd\ufffd_Material #32_0",
			"translation":[
				8.68771894602105e-06,
				0,
				0
			]
		},
		{
			"children":[
				2
			],
			"name":"body2",
			"rotation":[
				0,
				0.7071066498756409,
				0,
				0.70710688829422
			],
			"translation":[
				-707.9483642578125,
				3924.685791015625,
				1800.76220703125
			]
		},
		{
			"mesh":2,
			"name":"Box001_Material #31_0",
			"translation":[
				1.506306762166787e-05,
				-4.578376774588833e-06,
				3.5883360851585167e-06
			]
		},
		{
			"children":[
				4
			],
			"name":"Box001",
			"rotation":[
				-0.4902327060699463,
				0.509580135345459,
				-0.4902327060699463,
				0.509580135345459
			],
			"translation":[
				-1019.4122314453125,
				138.97097778320312,
				1692.0595703125
			]
		},
		{
			"mesh":3,
			"name":"Box002_Material #31_0",
			"translation":[
				1.5424435332533903e-05,
				4.755277586809825e-06,
				-1.1670453204715159e-05
			]
		},
		{
			"children":[
				6
			],
			"name":"Box002",
			"rotation":[
				-0.4902327060699463,
				0.509580135345459,
				-0.4902327060699463,
				0.509580135345459
			],
			"translation":[
				-487.5323486328125,
				138.97097778320312,
				1692.0595703125
			]
		},
		{
			"mesh":4,
			"name":"Box003_Material #31_0",
			"translation":[
				-1.621246337890625e-05,
				-6.628036499023438e-05,
				-7.693431689403951e-05
			]
		},
		{
			"children":[
				8
			],
			"name":"Box003",
			"rotation":[
				-0.2653120458126068,
				0.27578288316726685,
				-0.6405200362205505,
				0.6657984256744385
			],
			"translation":[
				-319.9100036621094,
				138.97097778320312,
				751.8977661132812
			]
		},
		{
			"mesh":5,
			"name":"Box004_Material #31_0",
			"translation":[
				-1.52587890625e-05,
				3.2901763916015625e-05,
				5.445619171950966e-05
			]
		},
		{
			"children":[
				10
			],
			"name":"Box004",
			"rotation":[
				-0.640519917011261,
				0.665798544883728,
				-0.2653120160102844,
				0.27578282356262207
			],
			"translation":[
				-1157.9810791015625,
				138.97097778320312,
				811.1831665039062
			]
		},
		{
			"mesh":6,
			"name":"Cylinder001_Material #31_0",
			"translation":[
				0,
				0.00018588204693514854,
				0.00013101485092192888
			]
		},
		{
			"children":[
				12
			],
			"name":"Cylinder001",
			"rotation":[
				0,
				-0.9961947202682495,
				-0.0871557965874672,
				1.7432377319437364e-07
			],
			"translation":[
				-712.6041259765625,
				1259.5089111328125,
				2407.324462890625
			]
		},
		{
			"mesh":7,
			"name":"Cylinder005_Material #31_0",
			"translation":[
				0,
				0,
				-3.814697265625e-06
			]
		},
		{
			"children":[
				14
			],
			"name":"Cylinder005",
			"rotation":[
				-0.5,
				0.5,
				0.5,
				0.5
			],
			"translation":[
				-712.6041259765625,
				47.225582122802734,
				101.0494384765625
			]
		},
		{
			"mesh":8,
			"name":"Cylinder006_Material #32_0",
			"translation":[
				0,
				0,
				-3.814697265625e-06
			]
		},
		{
			"children":[
				16
			],
			"name":"Cylinder006",
			"rotation":[
				-0.5,
				0.5,
				0.5,
				0.5
			],
			"translation":[
				-712.6041259765625,
				47.225582122802734,
				74.7301025390625
			]
		},
		{
			"mesh":9,
			"name":"Cylinder007_Material #31_0",
			"translation":[
				0,
				-5.825857078889385e-05,
				0.00017679121810942888
			]
		},
		{
			"children":[
				18
			],
			"name":"Cylinder007",
			"rotation":[
				0,
				-0.9961947202682495,
				-0.0871557965874672,
				1.7432377319437364e-07
			],
			"translation":[
				-712.6041259765625,
				2803.873779296875,
				2726.1572265625
			]
		},
		{
			"mesh":10,
			"name":"Cylinder008_Material #31_0",
			"translation":[
				0,
				0.0003665697877295315,
				-0.00041348114609718323
			]
		},
		{
			"children":[
				20
			],
			"name":"Cylinder008",
			"rotation":[
				-0.70710688829422,
				0,
				0,
				0.7071066498756409
			],
			"translation":[
				-712.6041259765625,
				4540.02685546875,
				3077.439208984375
			]
		},
		{
			"mesh":11,
			"name":"Cylinder009_Material #31_0",
			"translation":[
				0,
				0.00016940577188506722,
				-0.00042824886622838676
			]
		},
		{
			"children":[
				22
			],
			"name":"Cylinder009",
			"rotation":[
				-0.70710688829422,
				0,
				0,
				0.7071066498756409
			],
			"translation":[
				-712.6041259765625,
				6007.47021484375,
				3187.351806640625
			]
		},
		{
			"mesh":12,
			"name":"Cylinder010_Material #31_0",
			"translation":[
				0,
				-5.825857078889385e-05,
				0.00014627363998442888
			]
		},
		{
			"children":[
				24
			],
			"name":"Cylinder010",
			"rotation":[
				0,
				-0.9961947202682495,
				-0.0871557965874672,
				1.7432377319437364e-07
			],
			"translation":[
				-712.6041259765625,
				1649.7218017578125,
				2726.1572265625
			]
		},
		{
			"mesh":13,
			"name":"Cylinder011_Material #31_0",
			"translation":[
				-2.552260411903262e-06,
				2.0135707018198445e-05,
				-0.00012449294445104897
			]
		},
		{
			"children":[
				26
			],
			"name":"Cylinder011",
			"rotation":[
				-0.70710688829422,
				0,
				0,
				0.7071066498756409
			],
			"translation":[
				-704.4566650390625,
				1649.7218017578125,
				2726.1572265625
			]
		},
		{
			"children":[
				1,
				3,
				5,
				7,
				9,
				11,
				13,
				15,
				17,
				19,
				21,
				23,
				25,
				27
			],
			"name":"RootNode",
			"translation":[
				0.0001220703125,
				0,
				0
			]
		},
		{
			"children":[
				28
			],
			"name":"04e39d91ecc343c1a4683058e8a931ab.fbx",
			"rotation":[
				0.70710688829422,
				0,
				0,
				0.7071066498756409
			],
			"translation":[
				6.103515625e-05,
				0,
				0
			]
		},
		{
			"children":[
				29
			],
			"name":"Sketchfab_model",
			"rotation":[
				-0.70710688829422,
				0,
				0,
				0.7071066498756409
			],
			"scale":[
				0.002324499888345599,
				0.002324500121176243,
				0.002324500121176243
			],
			"translation":[
				1.7000000476837158,
				0,
				0
			]
		}
	],
	"materials":[
		{
			"doubleSided":true,
			"name":"Material_30",
			"pbrMetallicRoughness":{
				"baseColorFactor":[
					0.5879999995231628,
					0.5879999995231628,
					0.5879999995231628,
					1
				],
				"metallicFactor":0,
				"roughnessFactor":0.8929713368415833
			}
		},
		{
			"doubleSided":true,
			"name":"Material_32",
			"pbrMetallicRoughness":{
				"baseColorFactor":[
					0.5879999995231628,
					0.5879999995231628,
					0.5879999995231628,
					1
				],
				"metallicFactor":0,
				"roughnessFactor":0.8929713368415833
			}
		},
		{
			"doubleSided":true,
			"name":"Material_31",
			"pbrMetallicRoughness":{
				"baseColorFactor":[
					0.5879999995231628,
					0.5879999995231628,
					0.5879999995231628,
					1
				],
				"metallicFactor":0,
				"roughnessFactor":0.8929713368415833
			}
		}
	],
	"meshes":[
		{
			"name":"\ufffd\ufffd\ufffd\ufffd\ufffd\ufffd\ufffd\ufffd\ufffd\ufffd_Material #30_0",
			"primitives":[
				{
					"attributes":{
						"POSITION":0,
						"NORMAL":1
					},
					"indices":2,
					"material":0
				}
			]
		},
		{
			"name":"\ufffd\ufffd\ufffd\ufffd\ufffd\ufffd\ufffd\ufffd\ufffd\ufffd_Material #32_0",
			"primitives":[
				{
					"attributes":{
						"POSITION":3,
						"NORMAL":4
					},
					"indices":5,
					"material":1
				}
			]
		},
		{
			"name":"Box001_Material #31_0",
			"primitives":[
				{
					"attributes":{
						"POSITION":6,
						"NORMAL":7,
						"TEXCOORD_0":8
					},
					"indices":9,
					"material":2
				}
			]
		},
		{
			"name":"Box002_Material #31_0",
			"primitives":[
				{
					"attributes":{
						"POSITION":10,
						"NORMAL":11,
						"TEXCOORD_0":12
					},
					"indices":9,
					"material":2
				}
			]
		},
		{
			"name":"Box003_Material #31_0",
			"primitives":[
				{
					"attributes":{
						"POSITION":13,
						"NORMAL":14,
						"TEXCOORD_0":15
					},
					"indices":9,
					"material":2
				}
			]
		},
		{
			"name":"Box004_Material #31_0",
			"primitives":[
				{
					"attributes":{
						"POSITION":16,
						"NORMAL":17,
						"TEXCOORD_0":18
					},
					"indices":9,
					"material":2
				}
			]
		},
		{
			"name":"Cylinder001_Material #31_0",
			"primitives":[
				{
					"attributes":{
						"POSITION":19,
						"NORMAL":20,
						"TEXCOORD_0":21
					},
					"indices":22,
					"material":2
				}
			]
		},
		{
			"name":"Cylinder005_Material #31_0",
			"primitives":[
				{
					"attributes":{
						"POSITION":23,
						"NORMAL":24,
						"TEXCOORD_0":25
					},
					"indices":26,
					"material":2
				}
			]
		},
		{
			"name":"Cylinder006_Material #32_0",
			"primitives":[
				{
					"attributes":{
						"POSITION":27,
						"NORMAL":28,
						"TEXCOORD_0":29
					},
					"indices":30,
					"material":1
				}
			]
		},
		{
			"name":"Cylinder007_Material #31_0",
			"primitives":[
				{
					"attributes":{
						"POSITION":31,
						"NORMAL":32,
						"TEXCOORD_0":33
					},
					"indices":22,
					"material":2
				}
			]
		},
		{
			"name":"Cylinder008_Material #31_0",
			"primitives":[
				{
					"attributes":{
						"POSITION":34,
						"NORMAL":35,
						"TEXCOORD_0":36
					},
					"indices":37,
					"material":2
				}
			]
		},
		{
			"name":"Cylinder009_Material #31_0",
			"primitives":[
				{
					"attributes":{
						"POSITION":38,
						"NORMAL":39,
						"TEXCOORD_0":40
					},
					"indices":37,
					"material":2
				}
			]
		},
		{
			"name":"Cylinder010_Material #31_0",
			"primitives":[
				{
					"attributes":{
						"POSITION":41,
						"NORMAL":42,
						"TEXCOORD_0":43
					},
					"indices":37,
					"material":2
				}
			]
		},
		{
			"name":"Cylinder011_Material #31_0",
			"primitives":[
				{
					"attributes":{
						"POSITION":44,
						"NORMAL":45,
						"TEXCOORD_0":46
					},
					"indices":37,
					"material":2
				}
			]
		}
	],
	"accessors":[
		{
			"bufferView":0,
			"componentType":5126,
			"count":5702,
			"max":[
				657.04345703125,
				2109.34716796875,
				59.61193084716797
			],
			"min":[
				-662.9404907226562,
				-2192.353515625,
				-597.879150390625
			],
			"type":"VEC3"
		},
		{
			"bufferView":1,
			"componentType":5126,
			"count":5702,
			"type":"VEC3"
		},
		{
			"bufferView":2,
			"componentType":5123,
			"count":34176,
			"type":"SCALAR"
		},
		{
			"bufferView":3,
			"componentType":5126,
			"count":100,
			"max":[
				1697.87646484375,
				3513.300537109375,
				2
			],
			"min":[
				-1227.34423828125,
				-3797.064208984375,
				0
			],
			"type":"VEC3"
		},
		{
			"bufferView":4,
			"componentType":5126,
			"count":100,
			"type":"VEC3"
		},
		{
			"bufferView":5,
			"componentType":5123,
			"count":192,
			"type":"SCALAR"
		},
		{
			"bufferView":6,
			"componentType":5126,
			"count":3653,
			"max":[
				86.90215301513672,
				134.7075958251953,
				67.265625
			],
			"min":[
				-3.2733612060546875,
				-137.9899444580078,
				2.734370231628418
			],
			"type":"VEC3"
		},
		{
			"bufferView":7,
			"componentType":5126,
			"count":3653,
			"type":"VEC3"
		},
		{
			"bufferView":8,
			"componentType":5126,
			"count":3653,
			"type":"VEC2"
		},
		{
			"bufferView":9,
			"componentType":5123,
			"count":19200,
			"type":"SCALAR"
		},
		{
			"bufferView":10,
			"componentType":5126,
			"count":3653,
			"max":[
				86.90215301513672,
				134.7075958251953,
				67.265625
			],
			"min":[
				-3.2733612060546875,
				-137.9899444580078,
				2.734370231628418
			],
			"type":"VEC3"
		},
		{
			"bufferView":11,
			"componentType":5126,
			"count":3653,
			"type":"VEC3"
		},
		{
			"bufferView":12,
			"componentType":5126,
			"count":3653,
			"type":"VEC2"
		},
		{
			"bufferView":13,
			"componentType":5126,
			"count":3653,
			"max":[
				86.90215301513672,
				134.7075958251953,
				67.265625
			],
			"min":[
				-3.2733612060546875,
				-137.9899444580078,
				2.734370231628418
			],
			"type":"VEC3"
		},
		{
			"bufferView":14,
			"componentType":5126,
			"count":3653,
			"type":"VEC3"
		},
		{
			"bufferView":15,
			"componentType":5126,
			"count":3653,
			"type":"VEC2"
		},
		{
			"bufferView":16,
			"componentType":5126,
			"count":3653,
			"max":[
				86.90215301513672,
				134.7075958251953,
				67.265625
			],
			"min":[
				-3.2733612060546875,
				-137.9899444580078,
				2.734370231628418
			],
			"type":"VEC3"
		},
		{
			"bufferView":17,
			"componentType":5126,
			"count":3653,
			"type":"VEC3"
		},
		{
			"bufferView":18,
			"componentType":5126,
			"count":3653,
			"type":"VEC2"
		},
		{
			"bufferView":19,
			"componentType":5126,
			"count":150,
			"max":[
				40,
				50.580230712890625,
				1997.152099609375
			],
			"min":[
				-40,
				-51.11830139160156,
				-2.06756591796875
			],
			"type":"VEC3"
		},
		{
			"bufferView":20,
			"componentType":5126,
			"count":150,
			"type":"VEC3"
		},
		{
			"bufferView":21,
			"componentType":5126,
			"count":150,
			"type":"VEC2"
		},
		{
			"bufferView":22,
			"componentType":5123,
			"count":636,
			"type":"SCALAR"
		},
		{
			"bufferView":23,
			"componentType":5126,
			"count":256,
			"max":[
				84.25726318359375,
				82.97721862792969,
				6946.07080078125
			],
			"min":[
				-1890.3248291015625,
				-82.97721862792969,
				0
			],
			"type":"VEC3"
		},
		{
			"bufferView":24,
			"componentType":5126,
			"count":256,
			"type":"VEC3"
		},
		{
			"bufferView":25,
			"componentType":5126,
			"count":256,
			"type":"VEC2"
		},
		{
			"bufferView":26,
			"componentType":5123,
			"count":1176,
			"type":"SCALAR"
		},
		{
			"bufferView":27,
			"componentType":5126,
			"count":882,
			"max":[
				78.85427856445312,
				102.45060729980469,
				7055.77783203125
			],
			"min":[
				-2092.609130859375,
				-102.4504623413086,
				712.904296875
			],
			"type":"VEC3"
		},
		{
			"bufferView":28,
			"componentType":5126,
			"count":882,
			"type":"VEC3"
		},
		{
			"bufferView":29,
			"componentType":5126,
			"count":882,
			"type":"VEC2"
		},
		{
			"bufferView":30,
			"componentType":5123,
			"count":2514,
			"type":"SCALAR"
		},
		{
			"bufferView":31,
			"componentType":5126,
			"count":150,
			"max":[
				40,
				50.580230712890625,
				1997.152099609375
			],
			"min":[
				-40,
				-51.11830139160156,
				-2.06756591796875
			],
			"type":"VEC3"
		},
		{
			"bufferView":32,
			"componentType":5126,
			"count":150,
			"type":"VEC3"
		},
		{
			"bufferView":33,
			"componentType":5126,
			"count":150,
			"type":"VEC2"
		},
		{
			"bufferView":34,
			"componentType":5126,
			"count":6667,
			"max":[
				39.20838165283203,
				1979.0931396484375,
				206.4276123046875
			],
			"min":[
				-39.208709716796875,
				384.4027404785156,
				-1.4346809387207031
			],
			"type":"VEC3"
		},
		{
			"bufferView":35,
			"componentType":5126,
			"count":6667,
			"type":"VEC3"
		},
		{
			"bufferView":36,
			"componentType":5126,
			"count":6667,
			"type":"VEC2"
		},
		{
			"bufferView":37,
			"componentType":5123,
			"count":38016,
			"type":"SCALAR"
		},
		{
			"bufferView":38,
			"componentType":5126,
			"count":6667,
			"max":[
				39.2086181640625,
				1498.4510498046875,
				49.95783233642578
			],
			"min":[
				-39.208343505859375,
				385.75115966796875,
				-53.51500701904297
			],
			"type":"VEC3"
		},
		{
			"bufferView":39,
			"componentType":5126,
			"count":6667,
			"type":"VEC3"
		},
		{
			"bufferView":40,
			"componentType":5126,
			"count":6667,
			"type":"VEC2"
		},
		{
			"bufferView":41,
			"componentType":5126,
			"count":6667,
			"max":[
				9.848064422607422,
				85.2292251586914,
				2462.995361328125
			],
			"min":[
				-283.474365234375,
				-47.25547409057617,
				-174.33047485351562
			],
			"type":"VEC3"
		},
		{
			"bufferView":42,
			"componentType":5126,
			"count":6667,
			"type":"VEC3"
		},
		{
			"bufferView":43,
			"componentType":5126,
			"count":6667,
			"type":"VEC2"
		},
		{
			"bufferView":44,
			"componentType":5126,
			"count":6667,
			"max":[
				9.848125457763672,
				2424.825927734375,
				456.4284973144531
			],
			"min":[
				-283.4748229980469,
				-177.3211669921875,
				-23.371129989624023
			],
			"type":"VEC3"
		},
		{
			"bufferView":45,
			"componentType":5126,
			"count":6667,
			"type":"VEC3"
		},
		{
			"bufferView":46,
			"componentType":5126,
			"count":6667,
			"type":"VEC2"
		}
	],
	"bufferViews":[
		{
			"buffer":0,
			"byteLength":68424,
			"byteOffset":0,
			"target":34962
		},
		{
			"buffer":0,
			"byteLength":68424,
			"byteOffset":68424,
			"target":34962
		},
		{
			"buffer":0,
			"byteLength":68352,
			"byteOffset":136848,
			"target":34963
		},
		{
			"buffer":0,
			"byteLength":1200,
			"byteOffset":205200,
			"target":34962
		},
		{
			"buffer":0,
			"byteLength":1200,
			"byteOffset":206400,
			"target":34962
		},
		{
			"buffer":0,
			"byteLength":384,
			"byteOffset":207600,
			"target":34963
		},
		{
			"buffer":0,
			"byteLength":43836,
			"byteOffset":207984,
			"target":34962
		},
		{
			"buffer":0,
			"byteLength":43836,
			"byteOffset":251820,
			"target":34962
		},
		{
			"buffer":0,
			"byteLength":29224,
			"byteOffset":295656,
			"target":34962
		},
		{
			"buffer":0,
			"byteLength":38400,
			"byteOffset":324880,
			"target":34963
		},
		{
			"buffer":0,
			"byteLength":43836,
			"byteOffset":363280,
			"target":34962
		},
		{
			"buffer":0,
			"byteLength":43836,
			"byteOffset":407116,
			"target":34962
		},
		{
			"buffer":0,
			"byteLength":29224,
			"byteOffset":450952,
			"target":34962
		},
		{
			"buffer":0,
			"byteLength":43836,
			"byteOffset":480176,
			"target":34962
		},
		{
			"buffer":0,
			"byteLength":43836,
			"byteOffset":524012,
			"target":34962
		},
		{
			"buffer":0,
			"byteLength":29224,
			"byteOffset":567848,
			"target":34962
		},
		{
			"buffer":0,
			"byteLength":43836,
			"byteOffset":597072,
			"target":34962
		},
		{
			"buffer":0,
			"byteLength":43836,
			"byteOffset":640908,
			"target":34962
		},
		{
			"buffer":0,
			"byteLength":29224,
			"byteOffset":684744,
			"target":34962
		},
		{
			"buffer":0,
			"byteLength":1800,
			"byteOffset":713968,
			"target":34962
		},
		{
			"buffer":0,
			"byteLength":1800,
			"byteOffset":715768,
			"target":34962
		},
		{
			"buffer":0,
			"byteLength":1200,
			"byteOffset":717568,
			"target":34962
		},
		{
			"buffer":0,
			"byteLength":1272,
			"byteOffset":718768,
			"target":34963
		},
		{
			"buffer":0,
			"byteLength":3072,
			"byteOffset":720040,
			"target":34962
		},
		{
			"buffer":0,
			"byteLength":3072,
			"byteOffset":723112,
			"target":34962
		},
		{
			"buffer":0,
			"byteLength":2048,
			"byteOffset":726184,
			"target":34962
		},
		{
			"buffer":0,
			"byteLength":2352,
			"byteOffset":728232,
			"target":34963
		},
		{
			"buffer":0,
			"byteLength":10584,
			"byteOffset":730584,
			"target":34962
		},
		{
			"buffer":0,
			"byteLength":10584,
			"byteOffset":741168,
			"target":34962
		},
		{
			"buffer":0,
			"byteLength":7056,
			"byteOffset":751752,
			"target":34962
		},
		{
			"buffer":0,
			"byteLength":5028,
			"byteOffset":758808,
			"target":34963
		},
		{
			"buffer":0,
			"byteLength":1800,
			"byteOffset":763836,
			"target":34962
		},
		{
			"buffer":0,
			"byteLength":1800,
			"byteOffset":765636,
			"target":34962
		},
		{
			"buffer":0,
			"byteLength":1200,
			"byteOffset":767436,
			"target":34962
		},
		{
			"buffer":0,
			"byteLength":80004,
			"byteOffset":768636,
			"target":34962
		},
		{
			"buffer":0,
			"byteLength":80004,
			"byteOffset":848640,
			"target":34962
		},
		{
			"buffer":0,
			"byteLength":53336,
			"byteOffset":928644,
			"target":34962
		},
		{
			"buffer":0,
			"byteLength":76032,
			"byteOffset":981980,
			"target":34963
		},
		{
			"buffer":0,
			"byteLength":80004,
			"byteOffset":1058012,
			"target":34962
		},
		{
			"buffer":0,
			"byteLength":80004,
			"byteOffset":1138016,
			"target":34962
		},
		{
			"buffer":0,
			"byteLength":53336,
			"byteOffset":1218020,
			"target":34962
		},
		{
			"buffer":0,
			"byteLength":80004,
			"byteOffset":1271356,
			"target":34962
		},
		{
			"buffer":0,
			"byteLength":80004,
			"byteOffset":1351360,
			"target":34962
		},
		{
			"buffer":0,
			"byteLength":53336,
			"byteOffset":1431364,
			"target":34962
		},
		{
			"buffer":0,
			"byteLength":80004,
			"byteOffset":1484700,
			"target":34962
		},
		{
			"buffer":0,
			"byteLength":80004,
			"byteOffset":1564704,
			"target":34962
		},
		{
			"buffer":0,
			"byteLength":53336,
			"byteOffset":1644708,
			"target":34962
		}
	],
	"buffers":[
		{
			"byteLength":1698044,
			"uri":"scene.bin"
		}
	]
}
