{
	"asset":{
		"generator":"Khronos glTF Blender I/O v4.0.44",
		"version":"2.0"
	},
	"scene":0,
	"scenes":[
		{
			"name":"Scene",
			"nodes":[
				22
			]
		}
	],
	"nodes":[
		{
			"mesh":0,
			"name":"body_body_0"
		},
		{
			"children":[
				0
			],
			"name":"body",
			"rotation":[
				-0.70710688829422,
				0,
				0,
				0.7071066498756409
			],
			"scale":[
				1,
				5.241835117340088,
				1
			],
			"translation":[
				0,
				-5.61854887008667,
				0
			]
		},
		{
			"mesh":1,
			"name":"boom_aluminium_0"
		},
		{
			"children":[
				2
			],
			"name":"boom",
			"scale":[
				0.15000000596046448,
				0.15000000596046448,
				4.608833312988281
			],
			"translation":[
				0,
				-3.118640184402466,
				0.9859036207199097
			]
		},
		{
			"mesh":2,
			"name":"centerboard_body_0"
		},
		{
			"children":[
				4
			],
			"name":"centerboard",
			"rotation":[
				-0.70710688829422,
				0,
				0,
				0.7071066498756409
			],
			"scale":[
				0.11449950933456421,
				0.612693727016449,
				1
			],
			"translation":[
				0,
				-7.703592777252197,
				-0.5192675590515137
			]
		},
		{
			"mesh":3,
			"name":"must_aluminium_0"
		},
		{
			"children":[
				6
			],
			"name":"must",
			"rotation":[
				-0.70710688829422,
				0,
				0,
				0.7071066498756409
			],
			"scale":[
				0.15000000596046448,
				0.14999999105930328,
				5.045173645019531
			],
			"translation":[
				0,
				-0.7943994402885437,
				-3.8667333126068115
			]
		},
		{
			"mesh":4,
			"name":"rubber_joint__0"
		},
		{
			"children":[
				8
			],
			"name":"rubber_joint",
			"rotation":[
				-0.70710688829422,
				0,
				0,
				0.7071066498756409
			],
			"scale":[
				-0.03708699345588684,
				-0.055806104093790054,
				-0.07926865667104721
			],
			"translation":[
				0,
				-4.48276948928833,
				3.4746310710906982
			]
		},
		{
			"mesh":5,
			"name":"rudder_body_0"
		},
		{
			"children":[
				10
			],
			"name":"rudder",
			"rotation":[
				-0.70710688829422,
				0,
				0,
				0.7071066498756409
			],
			"scale":[
				0.0157016534358263,
				1,
				1.4838769435882568
			],
			"translation":[
				0,
				-6.031590461730957,
				6.285955905914307
			]
		},
		{
			"mesh":6,
			"name":"sail_sail_0"
		},
		{
			"children":[
				12
			],
			"name":"sail",
			"rotation":[
				0.5,
				-0.4999999403953552,
				-0.5,
				0.5000000596046448
			],
			"scale":[
				-5.727657318115234,
				-4.3614301681518555,
				-4.3614301681518555
			],
			"translation":[
				0,
				2.8488759994506836,
				0.7205791473388672
			]
		},
		{
			"mesh":7,
			"name":"split_aluminium_0"
		},
		{
			"children":[
				14
			],
			"name":"split",
			"rotation":[
				-0.5489749312400818,
				-0.025092734023928642,
				-0.01649142988026142,
				0.8352993130683899
			],
			"scale":[
				0.08397673070430756,
				0.10693486779928207,
				5.367663860321045
			],
			"translation":[
				0.1338951587677002,
				3.631082057952881,
				-2.1495089530944824
			]
		},
		{
			"mesh":8,
			"name":"tiller_aluminium_0"
		},
		{
			"children":[
				16
			],
			"name":"tiller",
			"rotation":[
				0,
				-0.70710688829422,
				-0.7071066498756409,
				3.0908616110991716e-08
			],
			"scale":[
				-0.03609025105834007,
				-1.2021352052688599,
				-0.04057573899626732
			],
			"translation":[
				0,
				-4.545732021331787,
				4.5741095542907715
			]
		},
		{
			"mesh":9,
			"name":"tiller_extension_aluminium_0",
			"translation":[
				0,
				-3.814697265625e-06,
				0
			]
		},
		{
			"children":[
				18
			],
			"name":"tiller_extension",
			"rotation":[
				-0.029927300289273262,
				0,
				0,
				0.9995521903038025
			],
			"scale":[
				0.03188593313097954,
				0.03188593313097954,
				1.373600959777832
			],
			"translation":[
				0,
				-4.368794918060303,
				4.837766170501709
			]
		},
		{
			"children":[
				1,
				3,
				5,
				7,
				9,
				11,
				13,
				15,
				17,
				19
			],
			"name":"RootNode"
		},
		{
			"children":[
				20
			],
			"name":"65bf533a46b9421e90f04c32dbcd21cb.fbx",
			"rotation":[
				0.70710688829422,
				0,
				0,
				0.7071066498756409
			]
		},
		{
			"children":[
				21
			],
			"name":"Sketchfab_model",
			"rotation":[
				-0.5,
				0.5,
				0.5,
				0.5
			],
			"translation":[
				-0.9379331469535828,
				5.890008926391602,
				-0.0020552873611450195
			]
		}
	],
	"materials":[
		{
			"doubleSided":true,
			"name":"body",
			"pbrMetallicRoughness":{
				"metallicFactor":0
			}
		},
		{
			"doubleSided":true,
			"name":"aluminium",
			"pbrMetallicRoughness":{
				"baseColorFactor":[
					0.16569599509239197,
					0.16569599509239197,
					0.16569599509239197,
					1
				],
				"metallicFactor":0
			}
		},
		{
			"doubleSided":true,
			"name":"rubber_joint__0",
			"pbrMetallicRoughness":{
				"metallicFactor":0,
				"roughnessFactor":0.6000000238418579
			}
		},
		{
			"doubleSided":true,
			"name":"sail",
			"pbrMetallicRoughness":{
				"baseColorFactor":[
					1,
					0.8865860104560852,
					0.8103240132331848,
					1
				],
				"metallicFactor":0
			}
		}
	],
	"meshes":[
		{
			"name":"body_body_0",
			"primitives":[
				{
					"attributes":{
						"POSITION":0,
						"NORMAL":1
					},
					"indices":2,
					"material":0
				}
			]
		},
		{
			"name":"boom_aluminium_0",
			"primitives":[
				{
					"attributes":{
						"POSITION":3,
						"NORMAL":4
					},
					"indices":5,
					"material":1
				}
			]
		},
		{
			"name":"centerboard_body_0",
			"primitives":[
				{
					"attributes":{
						"POSITION":6,
						"NORMAL":7
					},
					"indices":8,
					"material":0
				}
			]
		},
		{
			"name":"must_aluminium_0",
			"primitives":[
				{
					"attributes":{
						"POSITION":9,
						"NORMAL":10
					},
					"indices":5,
					"material":1
				}
			]
		},
		{
			"name":"rubber_joint__0",
			"primitives":[
				{
					"attributes":{
						"POSITION":11,
						"NORMAL":12
					},
					"indices":13,
					"material":2
				}
			]
		},
		{
			"name":"rudder_body_0",
			"primitives":[
				{
					"attributes":{
						"POSITION":14,
						"NORMAL":15
					},
					"indices":16,
					"material":0
				}
			]
		},
		{
			"name":"sail_sail_0",
			"primitives":[
				{
					"attributes":{
						"POSITION":17,
						"NORMAL":18
					},
					"indices":19,
					"material":3
				}
			]
		},
		{
			"name":"split_aluminium_0",
			"primitives":[
				{
					"attributes":{
						"POSITION":20,
						"NORMAL":21
					},
					"indices":5,
					"material":1
				}
			]
		},
		{
			"name":"tiller_aluminium_0",
			"primitives":[
				{
					"attributes":{
						"POSITION":22,
						"NORMAL":23
					},
					"indices":24,
					"material":1
				}
			]
		},
		{
			"name":"tiller_extension_aluminium_0",
			"primitives":[
				{
					"attributes":{
						"POSITION":25,
						"NORMAL":26
					},
					"indices":5,
					"material":1
				}
			]
		}
	],
	"accessors":[
		{
			"bufferView":0,
			"componentType":5126,
			"count":4395,
			"max":[
				2.885632276535034,
				0.9999997615814209,
				1
			],
			"min":[
				-2.885632276535034,
				-1.0000001192092896,
				-0.7598652839660645
			],
			"type":"VEC3"
		},
		{
			"bufferView":1,
			"componentType":5126,
			"count":4395,
			"type":"VEC3"
		},
		{
			"bufferView":2,
			"componentType":5123,
			"count":6996,
			"type":"SCALAR"
		},
		{
			"bufferView":3,
			"componentType":5126,
			"count":192,
			"max":[
				1,
				1,
				1
			],
			"min":[
				-1,
				-1,
				-1
			],
			"type":"VEC3"
		},
		{
			"bufferView":4,
			"componentType":5126,
			"count":192,
			"type":"VEC3"
		},
		{
			"bufferView":5,
			"componentType":5123,
			"count":372,
			"type":"SCALAR"
		},
		{
			"bufferView":6,
			"componentType":5126,
			"count":180,
			"max":[
				0.9623587131500244,
				1.0894538164138794,
				2.947587490081787
			],
			"min":[
				-0.9623587131500244,
				-1.0941592454910278,
				-1
			],
			"type":"VEC3"
		},
		{
			"bufferView":7,
			"componentType":5126,
			"count":180,
			"type":"VEC3"
		},
		{
			"bufferView":8,
			"componentType":5123,
			"count":420,
			"type":"SCALAR"
		},
		{
			"bufferView":9,
			"componentType":5126,
			"count":192,
			"max":[
				1,
				1,
				1
			],
			"min":[
				-1,
				-1,
				-1
			],
			"type":"VEC3"
		},
		{
			"bufferView":10,
			"componentType":5126,
			"count":192,
			"type":"VEC3"
		},
		{
			"bufferView":11,
			"componentType":5126,
			"count":2016,
			"max":[
				1.000000238418579,
				1,
				1
			],
			"min":[
				-0.9999998211860657,
				-1.0000003576278687,
				-1
			],
			"type":"VEC3"
		},
		{
			"bufferView":12,
			"componentType":5126,
			"count":2016,
			"type":"VEC3"
		},
		{
			"bufferView":13,
			"componentType":5123,
			"count":2880,
			"type":"SCALAR"
		},
		{
			"bufferView":14,
			"componentType":5126,
			"count":272,
			"max":[
				1,
				1.0031946897506714,
				1.0524252653121948
			],
			"min":[
				-1,
				-0.8317512273788452,
				-0.9861707091331482
			],
			"type":"VEC3"
		},
		{
			"bufferView":15,
			"componentType":5126,
			"count":272,
			"type":"VEC3"
		},
		{
			"bufferView":16,
			"componentType":5123,
			"count":528,
			"type":"SCALAR"
		},
		{
			"bufferView":17,
			"componentType":5126,
			"count":126,
			"max":[
				1.001232385635376,
				1.0208637714385986,
				-0.005727349780499935
			],
			"min":[
				-1.0206527709960938,
				-1.0059235095977783,
				-0.08752016723155975
			],
			"type":"VEC3"
		},
		{
			"bufferView":18,
			"componentType":5126,
			"count":126,
			"type":"VEC3"
		},
		{
			"bufferView":19,
			"componentType":5123,
			"count":744,
			"type":"SCALAR"
		},
		{
			"bufferView":20,
			"componentType":5126,
			"count":192,
			"max":[
				1,
				1,
				1
			],
			"min":[
				-1,
				-1,
				-1
			],
			"type":"VEC3"
		},
		{
			"bufferView":21,
			"componentType":5126,
			"count":192,
			"type":"VEC3"
		},
		{
			"bufferView":22,
			"componentType":5126,
			"count":32,
			"max":[
				1,
				1,
				1
			],
			"min":[
				-1,
				-1,
				-1
			],
			"type":"VEC3"
		},
		{
			"bufferView":23,
			"componentType":5126,
			"count":32,
			"type":"VEC3"
		},
		{
			"bufferView":24,
			"componentType":5123,
			"count":60,
			"type":"SCALAR"
		},
		{
			"bufferView":25,
			"componentType":5126,
			"count":192,
			"max":[
				1.4999656677246094,
				1.4999654293060303,
				1
			],
			"min":[
				-1.4999656677246094,
				-1.499965786933899,
				-1
			],
			"type":"VEC3"
		},
		{
			"bufferView":26,
			"componentType":5126,
			"count":192,
			"type":"VEC3"
		}
	],
	"bufferViews":[
		{
			"buffer":0,
			"byteLength":52740,
			"byteOffset":0,
			"target":34962
		},
		{
			"buffer":0,
			"byteLength":52740,
			"byteOffset":52740,
			"target":34962
		},
		{
			"buffer":0,
			"byteLength":13992,
			"byteOffset":105480,
			"target":34963
		},
		{
			"buffer":0,
			"byteLength":2304,
			"byteOffset":119472,
			"target":34962
		},
		{
			"buffer":0,
			"byteLength":2304,
			"byteOffset":121776,
			"target":34962
		},
		{
			"buffer":0,
			"byteLength":744,
			"byteOffset":124080,
			"target":34963
		},
		{
			"buffer":0,
			"byteLength":2160,
			"byteOffset":124824,
			"target":34962
		},
		{
			"buffer":0,
			"byteLength":2160,
			"byteOffset":126984,
			"target":34962
		},
		{
			"buffer":0,
			"byteLength":840,
			"byteOffset":129144,
			"target":34963
		},
		{
			"buffer":0,
			"byteLength":2304,
			"byteOffset":129984,
			"target":34962
		},
		{
			"buffer":0,
			"byteLength":2304,
			"byteOffset":132288,
			"target":34962
		},
		{
			"buffer":0,
			"byteLength":24192,
			"byteOffset":134592,
			"target":34962
		},
		{
			"buffer":0,
			"byteLength":24192,
			"byteOffset":158784,
			"target":34962
		},
		{
			"buffer":0,
			"byteLength":5760,
			"byteOffset":182976,
			"target":34963
		},
		{
			"buffer":0,
			"byteLength":3264,
			"byteOffset":188736,
			"target":34962
		},
		{
			"buffer":0,
			"byteLength":3264,
			"byteOffset":192000,
			"target":34962
		},
		{
			"buffer":0,
			"byteLength":1056,
			"byteOffset":195264,
			"target":34963
		},
		{
			"buffer":0,
			"byteLength":1512,
			"byteOffset":196320,
			"target":34962
		},
		{
			"buffer":0,
			"byteLength":1512,
			"byteOffset":197832,
			"target":34962
		},
		{
			"buffer":0,
			"byteLength":1488,
			"byteOffset":199344,
			"target":34963
		},
		{
			"buffer":0,
			"byteLength":2304,
			"byteOffset":200832,
			"target":34962
		},
		{
			"buffer":0,
			"byteLength":2304,
			"byteOffset":203136,
			"target":34962
		},
		{
			"buffer":0,
			"byteLength":384,
			"byteOffset":205440,
			"target":34962
		},
		{
			"buffer":0,
			"byteLength":384,
			"byteOffset":205824,
			"target":34962
		},
		{
			"buffer":0,
			"byteLength":120,
			"byteOffset":206208,
			"target":34963
		},
		{
			"buffer":0,
			"byteLength":2304,
			"byteOffset":206328,
			"target":34962
		},
		{
			"buffer":0,
			"byteLength":2304,
			"byteOffset":208632,
			"target":34962
		}
	],
	"buffers":[
		{
			"byteLength":210936,
			"uri":"scene-transformed.bin"
		}
	]
}
