{
	"asset":{
		"generator":"Khronos glTF Blender I/O v4.0.44",
		"version":"2.0"
	},
	"scene":0,
	"scenes":[
		{
			"name":"Scene",
			"nodes":[
				0
			]
		}
	],
	"nodes":[
		{
			"mesh":0,
			"name":"sailboat",
			"rotation":[
				0,
				0.9999845623970032,
				0,
				0.005555470008403063
			],
			"scale":[
				0.21881842613220215,
				0.21881838142871857,
				0.21881842613220215
			],
			"translation":[
				0,
				-1.5,
				0
			]
		}
	],
	"materials":[
		{
			"doubleSided":true,
			"name":"texture",
			"pbrMetallicRoughness":{
				"baseColorTexture":{
					"index":0
				},
				"metallicFactor":0,
				"roughnessFactor":0.9699476361274719
			}
		}
	],
	"meshes":[
		{
			"name":"sailboat-mesh",
			"primitives":[
				{
					"attributes":{
						"POSITION":0,
						"NORMAL":1,
						"TEXCOORD_0":2
					},
					"indices":3,
					"material":0
				}
			]
		}
	],
	"textures":[
		{
			"sampler":0,
			"source":0
		}
	],
	"images":[
		{
			"mimeType":"image/png",
			"name":"metal_baseColor",
			"uri":"metal_baseColor.png"
		}
	],
	"accessors":[
		{
			"bufferView":0,
			"componentType":5126,
			"count":2415,
			"max":[
				3.8889999389648438,
				45.733882904052734,
				15.899995803833008
			],
			"min":[
				-3.8889999389648438,
				0.009916000068187714,
				-15.899996757507324
			],
			"type":"VEC3"
		},
		{
			"bufferView":1,
			"componentType":5126,
			"count":2415,
			"type":"VEC3"
		},
		{
			"bufferView":2,
			"componentType":5126,
			"count":2415,
			"type":"VEC2"
		},
		{
			"bufferView":3,
			"componentType":5123,
			"count":2415,
			"type":"SCALAR"
		}
	],
	"bufferViews":[
		{
			"buffer":0,
			"byteLength":28980,
			"byteOffset":0,
			"target":34962
		},
		{
			"buffer":0,
			"byteLength":28980,
			"byteOffset":28980,
			"target":34962
		},
		{
			"buffer":0,
			"byteLength":19320,
			"byteOffset":57960,
			"target":34962
		},
		{
			"buffer":0,
			"byteLength":4830,
			"byteOffset":77280,
			"target":34963
		}
	],
	"samplers":[
		{
			"magFilter":9729,
			"minFilter":9987
		}
	],
	"buffers":[
		{
			"byteLength":82112,
			"uri":"scene.bin"
		}
	]
}
